<?xml version="1.0" encoding="utf-8"?>
<!-- Generator: Adobe Illustrator 16.0.0, SVG Export Plug-In . SVG Version: 6.00 Build 0)  -->
<!DOCTYPE svg PUBLIC "-//W3C//DTD SVG 1.1//EN" "http://www.w3.org/Graphics/SVG/1.1/DTD/svg11.dtd">
<svg version="1.1" id="Calque_4" xmlns="http://www.w3.org/2000/svg" xmlns:xlink="http://www.w3.org/1999/xlink" x="0px" y="0px"
	 width="68px" height="45.102px" viewBox="0 0 68 45.102" enable-background="new 0 0 68 45.102" xml:space="preserve">
<g>
	<path fill="#5D5D5D" d="M66.625,26.002c-0.13-0.837-0.434-1.574-0.575-1.88c0.064-0.613,0.007-2.548-2.296-6.123
		c-0.447-0.696-0.824-1.306-1.156-1.84c-0.793-1.284-1.421-2.299-2.406-3.508c-0.354-0.438-1.07-1.105-1.892-0.681
		c-1.414,0.739-0.741,2.773-0.489,3.54c0.291,0.882,0.055,1.971-0.664,3.066c-0.76,1.157-1.986,2.219-3.459,2.987l-0.056,0.027
		c-0.725,0.373-1.469,0.55-2.196,0.588c-1.049-1.553-2.278-2.911-3.574-3.936c-0.178-0.143-0.424-0.146-0.604-0.02
		c-0.837,0.502-1.592,1.074-2.251,1.695c-0.399-0.077-0.805-0.018-1.19,0.184c-0.494,0.257-0.808,0.668-0.89,0.778
		c-0.085,0.104-0.562,0.687-1.254,1.529l-0.562-0.073c-0.002-0.002-0.002,0-0.002,0c-0.033-0.006-0.066-0.006-0.102-0.002
		c-0.002,0-0.005,0-0.005,0c-0.017,0-0.028,0.002-0.045,0.006c-0.003,0-0.006,0.001-0.009,0.001c-0.014,0.003-0.025,0.005-0.04,0.01
		c0,0-0.004,0.002-0.007,0.003c-0.035,0.012-0.074,0.027-0.108,0.046c-0.008,0.006-0.012,0.008-0.017,0.011
		c-0.004,0-0.006,0-0.006,0c-0.006,0.005-0.012,0.013-0.02,0.017c-0.005,0.004-0.012,0.007-0.02,0.012
		c-0.008,0.009-0.015,0.016-0.021,0.021c-0.006,0.007-0.008,0.008-0.016,0.013c-0.006,0.007-0.016,0.017-0.021,0.023
		c-0.006,0.004-0.011,0.009-0.013,0.013c-0.01,0.008-0.012,0.016-0.021,0.023c-0.004,0.006-0.006,0.01-0.013,0.016
		c-0.004,0.009-0.008,0.014-0.013,0.024c-0.004,0.007-0.01,0.011-0.012,0.018c-0.006,0.008-0.01,0.013-0.013,0.023
		c-0.004,0.005-0.008,0.014-0.013,0.021c-0.003,0.008-0.005,0.016-0.006,0.021c-0.006,0.009-0.008,0.017-0.012,0.025
		c-0.002,0.007-0.006,0.016-0.008,0.021c-0.002,0.01-0.004,0.018-0.006,0.025c-0.002,0.011-0.003,0.021-0.007,0.029
		c0,0.006-0.003,0.012-0.003,0.019v0.002c-0.001,0.017-0.001,0.031-0.002,0.049c0,0.004,0,0.008,0,0.011c0,0.014,0,0.028,0.001,0.04
		c0,0.007,0.001,0.017,0.001,0.023c0.002,0.011,0.003,0.016,0.003,0.026c0.004,0.009,0.007,0.016,0.009,0.025
		c0,0.009,0.002,0.016,0.004,0.02c0.002,0.012,0.008,0.021,0.012,0.033c0,0.004,0,0.01,0.004,0.017
		c0.013,0.031,0.025,0.061,0.046,0.09c0,0,0,0.001,0.002,0.001l0.161,0.259c-0.069-0.044-0.154-0.065-0.245-0.069
		c-0.283-0.005-0.513,0.22-0.515,0.502c-0.004,0.188,0.006,0.384,0.021,0.583c-0.787,0.959-1.652,2.012-2.475,3.014
		c-0.082-0.062-0.185-0.102-0.295-0.103c-0.281-0.004-0.513,0.221-0.515,0.498c-0.003,0.187,0.005,0.376,0.022,0.567
		c-0.967,1.184-1.808,2.216-2.292,2.825c-0.129,0.16-0.253,0.314-0.377,0.471c-0.088-0.138-0.241-0.228-0.414-0.229
		c-0.281-0.005-0.511,0.219-0.514,0.499c-0.005,0.268,0.014,0.543,0.05,0.822c-1.04,1.297-1.712,2.125-1.771,2.198
		c-0.065,0.074-1.398,1.607-3.244,2.604c-1.15,0.622-1.871,1.3-2.204,2.071c-0.003,0.008-0.005,0.018-0.009,0.027
		c-0.01,0.02-0.017,0.039-0.025,0.057c-0.15,0.396-0.176,0.746-0.18,0.979c-0.004,0.127-0.01,0.244-0.017,0.359
		c-0.027,0.428-0.05,0.868,0.265,1.239l0.018,0.023c0.893,1.108,2.223,1.963,3.746,2.408c2.99,0.873,6.593,0.228,10.707-1.918l0,0
		L40.52,42.8c1.437-0.751,7.451-4.056,13.27-7.249c5.331-2.926,10.363-5.69,11.447-6.256C66.042,28.885,66.927,27.975,66.625,26.002
		z M56.525,20.827c0.58-0.525,1.078-1.096,1.469-1.69c0.892-1.359,1.169-2.76,0.779-3.938c-0.653-1.985-0.164-2.241-0.004-2.327
		c0.191-0.101,0.535,0.297,0.637,0.423c0.406,0.499,1.21,1.702,1.945,2.836c-0.024,1.749-1.72,5.366-3.403,5.944
		c-0.88,0.302-1.482-0.049-2.041-0.741L56.525,20.827z M54.098,22.498l0.059-0.032c0.275-0.144,0.545-0.3,0.806-0.463
		c0.091,0.117,0.198,0.239,0.31,0.356c0.231,0.223,1.17,1.04,2.312,0.969c0.232-0.02,0.479-0.07,0.743-0.157
		c0.144-0.052,0.287-0.114,0.43-0.189c1.611-0.873,3.007-3.39,3.532-5.398c0.312,0.491,0.542,0.855,0.613,0.967
		c1.281,1.993,1.795,3.396,1.996,4.224c0.137,0.55,0.156,0.917,0.15,1.122c-0.633,0.696-1.74,1.7-3.539,2.694l-0.962,0.515
		c0,0-5.084,2.486-8.487,4.715l0,0c-0.274,0.189-0.526,0.377-0.748,0.558l-0.77,0.698c-1.24,1.099-2.963,2.183-3.872,2.725
		l-6.03-4.398c0.017-0.054,0.031-0.105,0.051-0.159c0.22-0.765,0.527-0.95,1.358-1.449c0.138-0.082,0.282-0.17,0.44-0.268
		c1.729-1.06,1.664-3.028,1.686-3.194c0.067-0.465,0.248-1.693,0.46-1.931c0.179-0.098,0.196-0.097,0.253-0.094
		c0.158,0.015,0.473,0.111,0.994,0.271l0.227,0.068c0.664,0.204,1.132,0.04,1.412-0.136c0.639-0.403,0.82-1.192,0.861-1.4
		l0.104-0.336c0.148,0.048,0.302,0.095,0.455,0.135C50.828,23.423,52.562,23.285,54.098,22.498z M44.386,35.389
		c-1.698-0.293-4.016,0.521-5.743,1.46c-0.086,0.047-0.173,0.096-0.262,0.145l-0.982-1.885c0.348-0.473,0.83-0.918,1.313-1.187
		c0.656-0.365,1.158-0.872,1.527-1.558L44.386,35.389z M47.506,19.266c0.939,0.786,1.839,1.758,2.648,2.857
		c-1.838-0.269-3.428-1.219-4.163-1.725C46.452,19.995,46.959,19.615,47.506,19.266z M32.242,35.609l0.007-0.009
		c0.009-0.008,0.486-0.598,1.273-1.577c0.054,0.169,0.116,0.34,0.182,0.512c0.191,0.475,0.42,0.923,0.68,1.329
		c0.146,0.221,0.435,0.293,0.662,0.174c0.015-0.006,0.027-0.017,0.041-0.024c0.236-0.149,0.304-0.465,0.149-0.701
		c-0.227-0.35-0.426-0.736-0.59-1.15c-0.146-0.373-0.262-0.749-0.335-1.119c0.298-0.377,0.625-0.782,0.972-1.215
		c0.102-0.13,0.22-0.275,0.351-0.438c-0.077,0.362-0.127,0.72-0.149,1.072c-0.019,0.281,0.192,0.521,0.475,0.54
		c0.096,0.004,0.186-0.017,0.268-0.058c0.152-0.079,0.26-0.234,0.271-0.417c0.025-0.418,0.098-0.847,0.212-1.276
		c0.114-0.422,0.265-0.827,0.442-1.194c0.039,0.118,0.082,0.231,0.128,0.347c0.188,0.477,0.419,0.922,0.679,1.328
		c0.145,0.224,0.434,0.293,0.662,0.176c0.016-0.01,0.027-0.017,0.043-0.025c0.232-0.15,0.301-0.465,0.148-0.699
		c-0.229-0.353-0.427-0.737-0.59-1.154c-0.18-0.448-0.308-0.908-0.38-1.351c0.404-0.497,0.827-1.011,1.252-1.531
		c-0.094,0.409-0.155,0.817-0.181,1.215c-0.02,0.279,0.193,0.521,0.475,0.539c0.098,0.007,0.188-0.015,0.268-0.056
		c0.152-0.08,0.26-0.235,0.271-0.419c0.025-0.416,0.099-0.845,0.214-1.275c0.088-0.334,0.188-0.673,0.309-0.992
		c0.029,0.083,0.059,0.168,0.093,0.251c0.188,0.476,0.417,0.922,0.681,1.33c0.143,0.22,0.43,0.293,0.66,0.174
		c0.014-0.008,0.029-0.017,0.039-0.025c0.236-0.151,0.305-0.468,0.15-0.7c-0.228-0.352-0.426-0.737-0.588-1.15
		c-0.176-0.443-0.305-0.899-0.379-1.335c0.102-0.123,0.199-0.24,0.295-0.355l0.507,0.795c0.143,0.222,0.433,0.297,0.661,0.176
		c0.015-0.005,0.024-0.014,0.041-0.022c0.232-0.149,0.303-0.463,0.154-0.699l-0.687-1.074c0.008-0.007,0.013-0.017,0.021-0.023
		l1.211,0.155c0.105,0.011,0.209-0.011,0.295-0.056c0.146-0.076,0.248-0.215,0.271-0.385c0.036-0.277-0.16-0.533-0.439-0.566
		l-0.576-0.076c0.521-0.631,0.854-1.03,0.865-1.048l0.03-0.04c0,0,0.208-0.303,0.529-0.468c0.321-0.168,0.626-0.135,0.965,0.107
		c0.462,0.333,1.269,0.853,2.284,1.295l-0.131,0.427c-0.01,0.024-0.017,0.05-0.019,0.077c-0.022,0.146-0.146,0.572-0.409,0.737
		c-0.055,0.032-0.214,0.134-0.572,0.023l-0.224-0.068c-1.202-0.369-1.419-0.438-2.055-0.085c-0.574,0.316-0.755,1.304-0.953,2.66
		c-0.022,0.163-0.046,0.313-0.065,0.438l-0.017,0.094c-0.121,0.741-0.226,1.382-1.135,1.946c-0.154,0.096-0.298,0.18-0.429,0.262
		c-0.893,0.534-1.483,0.888-1.813,2.035c-0.291,1.016-0.764,1.674-1.492,2.075c-1.024,0.565-1.975,1.69-2.259,2.669
		c-0.072,0.262-0.777,1.208-1.784,1.387c-0.779,0.138-1.546-0.231-2.281-1.104C32.106,35.769,32.228,35.627,32.242,35.609z
		 M28.705,38.451c0.996-0.537,1.845-1.206,2.46-1.762c1.205,1.393,2.382,1.542,3.189,1.398c0.354-0.064,0.682-0.19,0.98-0.354
		c0.73-0.405,1.271-1.036,1.504-1.505l0.658,1.263c-1.857,1.031-4.555,2.385-8.499,2.567c-0.796,0.035-1.427-0.076-1.878-0.334
		C27.418,39.288,27.948,38.86,28.705,38.451z M26.798,41.57c-0.018-0.102-0.008-0.273,0.002-0.459
		c0.008-0.115,0.016-0.254,0.019-0.399h0.001c0.594,0.279,1.338,0.402,2.227,0.361c4.538-0.212,7.48-1.87,9.432-2.969
		c0.229-0.13,0.445-0.253,0.648-0.363c1.8-0.98,4.201-1.746,5.509-1.24l0.815,0.312c-0.229,0.194-0.59,0.477-1.155,0.873
		c-3.651,2.568-5.683,3.854-11.903,4.974C30.524,42.992,28.646,42.625,26.798,41.57z M64.773,28.402
		c-1.094,0.57-6.131,3.339-11.465,6.268c-5.813,3.191-11.824,6.494-13.25,7.236l-0.008,0.005c-3.873,2.02-7.221,2.641-9.951,1.844
		c-0.021-0.01-0.042-0.016-0.062-0.02c0.842,0.097,1.688,0.073,2.533-0.078c3.832-0.688,6.164-1.467,8.203-2.529
		c1.379-0.719,2.621-1.566,4.104-2.609c1.277-0.896,1.695-1.324,1.845-1.573c0.692-0.396,3.305-1.939,4.887-3.478
		c1.222-1.188,4.215-2.746,7.108-4.249c1.115-0.58,2.271-1.181,3.284-1.74c1.542-0.852,2.614-1.721,3.335-2.422
		c0.108,0.311,0.228,0.704,0.287,1.121C65.688,26.585,65.871,27.831,64.773,28.402z"/>
	<g>
		<polygon fill="#5D5D5D" points="11.827,23.382 15.401,17.069 18.562,3.216 18.563,3.216 19.709,4.651 16.766,17.604 
			13.091,24.095 		"/>
		<path fill="#5D5D5D" d="M12.853,10.461c-1.085-0.459-2.359-1.539-2.346-3.386l0,0c-0.025-1.688,0.836-2.805,1.785-3.311l0,0
			c0.943-0.521,2.391-0.573,2.391-0.573l0,0c0.151,0,0.254,0.008,0.298,0.012l0,0l4.529,0.004l0.199,1.443h-4.808H14.87
			c0,0-0.053-0.01-0.188-0.01l0,0c-0.348-0.002-1.109,0.062-1.684,0.391l0,0c-0.566,0.345-1.021,0.803-1.044,2.044l0,0
			c0.013,0.871,0.372,1.339,0.906,1.736l0,0c0.537,0.385,1.261,0.593,1.739,0.683l0,0c0.32,0.061,0.507,0.069,0.51,0.069l0,0
			l-0.089,1.447C14.976,11.007,13.954,10.952,12.853,10.461L12.853,10.461z"/>
		<polygon fill="#5D5D5D" points="32.285,25.741 18.05,9.82 17.019,10.838 31.776,27.294 39.621,26.034 40.896,24.357 		"/>
		<polygon fill="#5D5D5D" points="18.017,7.55 18.017,9 37.21,9 45.339,20.774 45.339,20.774 46.344,19.679 37.97,7.55 		"/>
		
			<rect x="22.829" y="13.363" transform="matrix(-0.2918 0.9565 -0.9565 -0.2918 59.7515 -16.0673)" fill="#5D5D5D" width="25.991" height="1.448"/>
		<path fill="#5D5D5D" d="M1.314,23.893c0-6.175,5.003-11.178,11.175-11.178l0,0c6.174,0,11.177,5.006,11.179,11.178l0,0
			c-0.002,6.169-5.005,11.174-11.179,11.176l0,0C6.317,35.064,1.314,30.062,1.314,23.893L1.314,23.893z M2.763,23.893
			c0.01,5.367,4.356,9.715,9.727,9.725l0,0c5.369-0.01,9.719-4.356,9.724-9.725l0,0c-0.009-5.373-4.354-9.719-9.724-9.727l0,0
			C7.119,14.174,2.772,18.52,2.763,23.893L2.763,23.893z"/>
		<path fill="#5D5D5D" d="M12.489,22.32c0.869,0,1.573,0.704,1.573,1.572c0,0.866-0.704,1.57-1.573,1.57
			c-0.865,0-1.569-0.704-1.569-1.57C10.92,23.024,11.624,22.32,12.489,22.32z"/>
		<path fill="#5D5D5D" d="M38.646,23.893c0.011-5.374,4.356-9.719,9.727-9.727c3.786,0.006,7.057,2.169,8.663,5.327l0.862-1.445
			c-1.967-3.197-5.498-5.333-9.525-5.333c-6.17,0-11.175,5.006-11.178,11.178c0,1.34,0.236,2.627,0.675,3.818l1.187-1.056
			C38.796,25.781,38.648,24.852,38.646,23.893z"/>
		<circle fill="#5D5D5D" cx="32.032" cy="26.036" r="1.571"/>
		<polygon fill="#5D5D5D" points="30.362,21.373 31.429,21.17 33.305,31.016 32.233,31.22 		"/>
		<polygon fill="#5D5D5D" points="29.505,21.663 29.505,20.573 32.224,20.573 32.224,21.663 		"/>
		<path fill="#5D5D5D" d="M35.77,0.665c0,0-0.941,0.188-0.941,0.754c0,0.565,0.562,0.691,0.849,0.659
			c0.134-0.016,3.392-0.094,4.9,0.28c1.508,0.38,2.261,0.661,2.733-0.091c0.47-0.756,0.562-2.357-1.412-2.265
			C39.915,0.102,35.77,0.665,35.77,0.665z"/>
	</g>
</g>
</svg>
