<?xml version="1.0" encoding="utf-8"?>
<!-- Generator: Adobe Illustrator 16.0.0, SVG Export Plug-In . SVG Version: 6.00 Build 0)  -->
<!DOCTYPE svg PUBLIC "-//W3C//DTD SVG 1.1//EN" "http://www.w3.org/Graphics/SVG/1.1/DTD/svg11.dtd">
<svg version="1.1" id="Calque_1" xmlns="http://www.w3.org/2000/svg" xmlns:xlink="http://www.w3.org/1999/xlink" x="0px" y="0px"
	 width="85.488px" height="70.216px" viewBox="0 0 85.488 70.216" enable-background="new 0 0 85.488 70.216" xml:space="preserve">
<circle fill="#4F5150" cx="43.479" cy="12.755" r="10.925"/>
<path fill="#4F5150" d="M63.578,63.443c0,2.896-1.99,5.244-4.446,5.244H27.824c-2.456,0-4.446-2.348-4.446-5.244V33.947
	c0-2.896,1.991-5.244,4.446-5.244h31.308c2.456,0,4.446,2.348,4.446,5.244V63.443z"/>
<circle fill="#4F5150" cx="17.26" cy="9.38" r="9.381"/>
<path fill="#4F5150" d="M34.52,52.906c0,2.486-1.71,4.502-3.818,4.502H3.817C1.71,57.409,0,55.392,0,52.906V27.579
	c0-2.488,1.71-4.503,3.817-4.503h26.885c2.108,0,3.818,2.015,3.818,4.503V52.906z"/>
<circle fill="#4F5150" cx="71.002" cy="11.631" r="7.24"/>
<path fill="#4F5150" d="M84.322,45.221c0,1.919-1.319,3.475-2.946,3.475H60.628c-1.627,0-2.946-1.555-2.946-3.475V25.674
	c0-1.92,1.319-3.474,2.946-3.474h20.748c1.627,0,2.946,1.554,2.946,3.474V45.221z"/>
</svg>
