<?xml version="1.0" encoding="utf-8"?>
<!-- Generator: Adobe Illustrator 16.0.0, SVG Export Plug-In . SVG Version: 6.00 Build 0)  -->
<!DOCTYPE svg PUBLIC "-//W3C//DTD SVG 1.1//EN" "http://www.w3.org/Graphics/SVG/1.1/DTD/svg11.dtd">
<svg version="1.1" id="Calque_4" xmlns="http://www.w3.org/2000/svg" xmlns:xlink="http://www.w3.org/1999/xlink" x="0px" y="0px"
	 width="57.031px" height="46.993px" viewBox="0 0 57.031 46.993" enable-background="new 0 0 57.031 46.993" xml:space="preserve">
<path fill="#666666" d="M57.031,0.979l-0.05-0.034L55.628,0c0,0-5.697,2.704-11.66,10.974l-0.004-0.003l-0.473,0.675v0.001
	c-2.883,4.137-5.589,10.183-5.589,10.183l0.679,0.473c0,0,3.719-5.338,6.602-9.474l0.169,0.118l-22.247,31.92
	c0.391,0.486,0.846,0.92,1.37,1.283c0.521,0.366,1.085,0.643,1.675,0.842L48.394,15.07l0.509,0.354l0.472-0.676l-0.006-0.001
	C56.02,5.083,57.031,0.979,57.031,0.979z M41.058,17.309c0.913-1.711,2.003-3.6,3.107-5.189l0.342,0.239L41.058,17.309z
	 M45.318,11.918l-0.67-0.471c2.607-3.611,5.171-6.151,7.199-7.841C50.196,5.433,48.013,8.099,45.318,11.918z M25.848,45.991
	c-0.319-0.146-0.623-0.316-0.902-0.515c-0.281-0.194-0.549-0.419-0.793-0.669l0.18-0.26l1.693,1.187L25.848,45.991z M26.497,45.058
	l-1.694-1.185l21.225-30.458l0.509,0.357l-19.334,27.75l0.673,0.47l19.335-27.75l0.511,0.356L26.497,45.058z M48.696,14.275
	l-2.704-1.889c5.242-7.426,8.537-10.444,9.661-11.367l0.175,0.123l0.19,0.133C55.541,2.647,53.847,6.79,48.696,14.275z"/>
<path fill="none" d="M26.659,5.555L16.595,5.553l0,0c-0.256,0-0.258,0.178-0.259,0.255c-0.004,0.43-0.004,1.434-0.002,2.269
	c0.101,0.036,0.189,0.095,0.261,0.176c0.12,0.139,0.18,0.321,0.209,0.503h9.787c0.015-0.186,0.061-0.358,0.189-0.493
	c0.075-0.079,0.169-0.138,0.283-0.174V5.875C27.061,5.808,27.019,5.555,26.659,5.555z"/>
<path fill="none" d="M16.254,8.548c-0.037-0.044-0.082-0.062-0.15-0.062h-1.145c-0.113,0-0.261,0.015-0.327,0.084
	c-0.036,0.041-0.056,0.104-0.063,0.185h1.777C16.324,8.671,16.298,8.597,16.254,8.548z"/>
<path fill="none" d="M5.331,8.485h-1.3c-0.249,0-0.425,0.066-0.545,0.202C3.469,8.709,3.454,8.731,3.438,8.754h1.891
	C5.329,8.651,5.331,8.561,5.331,8.485z"/>
<path fill="none" d="M10.231,8.755c-0.003-0.067-0.003-0.145-0.003-0.235L6.279,7.15L6.107,7.511l3.574,1.244H10.231z"/>
<path fill="none" d="M11.736,8.755c-0.021-0.108-0.055-0.202-0.098-0.25c-0.02-0.019-0.029-0.02-0.042-0.02h-0.918
	c0.002,0.107,0.003,0.192,0.003,0.27H11.736z"/>
<path fill="none" d="M39.753,8.755c-0.014-0.023-0.029-0.046-0.047-0.067c-0.121-0.137-0.299-0.202-0.547-0.202h-1.298
	c0.003,0.075,0.003,0.166,0.003,0.27L39.753,8.755L39.753,8.755z"/>
<path fill="none" d="M27.107,8.569c-0.038,0.041-0.056,0.104-0.064,0.185h1.778c-0.022-0.083-0.049-0.157-0.093-0.206
	c-0.037-0.044-0.083-0.062-0.15-0.062h-1.145C27.32,8.485,27.172,8.5,27.107,8.569z"/>
<path fill="none" d="M37.085,7.511l-0.17-0.361l-3.951,1.37c-0.002,0.091-0.002,0.168-0.004,0.235h0.552L37.085,7.511z"/>
<path fill="none" d="M32.515,8.485h-0.917c-0.015,0-0.022,0.001-0.041,0.02c-0.048,0.05-0.077,0.142-0.101,0.249h1.056
	C32.513,8.678,32.513,8.593,32.515,8.485z"/>
<path fill="none" d="M15.129,4.916v3.119h0.753c-0.001-0.827-0.001-1.808,0.003-2.233c0.008-0.517,0.381-0.7,0.699-0.7
	c0.02,0,0.035,0.002,0.043,0.002h10.032c0.612,0,0.848,0.46,0.854,0.766v2.166h0.691V4.928c0-0.877-0.695-0.9-0.776-0.9
	c0,0-9.447,0-11.102,0c-0.473,0-0.814,0.107-1.01,0.325c-0.217,0.235-0.19,0.527-0.189,0.541L15.129,4.916z"/>
<path fill="none" d="M42.292,14.503l-0.004-2.585c0-0.004-0.006-0.532-0.285-1.032c-0.348-0.626-0.953-0.93-1.853-0.93H3.13l0,0
	c-0.014,0-0.528,0.004-1.015,0.271c-0.608,0.334-0.906,0.918-0.906,1.791v3.641l-0.607,0.003h0.601v1.67
	c0.004,0.206,0.109,2.073,2.597,2.151c1.759,0.055,8.308,0.065,15.291,0.055l0.005-2.031c0-0.017-0.001-0.522,0.337-0.865
	c0.199-0.2,0.466-0.302,0.793-0.302h0.002c1.287,0.001,2.233-0.001,2.233-0.001h0.001c0.029,0,0.276,0.002,0.533,0.146
	c0.244,0.137,0.537,0.427,0.537,1.024v2.022c7.986-0.016,15.334-0.048,15.485-0.048h0.021l0.021,0.002
	c0.135,0.011,0.34,0.011,0.58-0.004l1.41-2.992L42.292,14.503z"/>
<path fill="none" d="M42.294,17.542V16.03v-0.554l0,0l-0.002-0.974l-1.24,1.985l-1.411,2.992c0.668-0.041,1.618-0.21,2.174-0.726
	C42.139,18.452,42.294,18.056,42.294,17.542z"/>
<path fill="none" d="M33.514,36.094c3.858,0,6.479-0.002,6.479-0.002c0.229-0.002,2.305-0.109,2.305-2.959v-9.77L33.514,36.094z"/>
<path fill="none" d="M38.637,21.603l0.435-0.915c-0.029-0.001-0.054-0.003-0.068-0.003c-0.43,0.002-7.037,0.029-14.454,0.046
	c0.102,0.239,0.167,0.546,0.167,0.944v1.877c0,0.431-0.113,0.801-0.323,1.068c-0.106,0.135-0.239,0.242-0.391,0.322v1.625
	c0,0.697-0.384,1.24-0.873,1.24h-3.372c-0.487,0-0.87-0.543-0.87-1.24v-1.613c-0.682-0.226-1.066-0.729-1.066-1.438v-1.991
	c0-0.018-0.003-0.395,0.185-0.784c-1.094,0.003-2.172,0.004-3.215,0.004c-5.236,0-9.629-0.016-11.028-0.06
	c-1.187-0.036-1.996-0.391-2.554-0.855v13.364c-0.002,0.009-0.102,1.253,0.667,2.091c0.495,0.539,1.27,0.812,2.3,0.812
	c4.713,0,16.441,0,25.202-0.002l0.312-0.492L38.637,21.603z"/>
<path fill="none" d="M42.298,19.904c-1.168,0.808-2.813,0.8-3.228,0.783l-0.435,0.915l-8.949,13.999l-0.311,0.491
	c1.479,0,2.873,0,4.137,0l8.783-12.729v-3.459H42.298z"/>
<path fill="none" d="M21.299,22.07c0.121,0,0.251-0.092,0.281-0.196c0.023-0.089-0.035-0.235-0.101-0.387
	c-0.045-0.104-0.095-0.222-0.13-0.351c-0.185,0.243-0.353,0.561-0.225,0.808C21.181,22.057,21.251,22.07,21.299,22.07z"/>
<path fill="none" d="M19.307,26.567c0,0.482,0.238,0.82,0.45,0.82h3.372c0.215,0,0.451-0.338,0.451-0.82v-1.486
	c-0.089,0.014-0.185,0.023-0.285,0.023c-0.024,0-0.053-0.004-0.08-0.004c-0.147,0.421-0.33,0.594-0.504,0.757l-0.009,0.013
	c-0.059,0.062-0.435,0.43-1.069,0.43c-0.375,0-0.767-0.129-1.163-0.383c-0.339-0.219-0.593-0.504-0.786-0.83
	c-0.131-0.004-0.256-0.016-0.377-0.033V26.567L19.307,26.567z"/>
<path fill="none" d="M18.598,20.666c-0.329,0.337-0.326,0.847-0.326,0.854v1.995c0,0.798,0.641,1.044,1.189,1.106
	c-0.098-0.248-0.168-0.513-0.221-0.774c-0.209-0.21-0.453-0.475-0.453-1.121c0-0.098-0.002-0.19-0.004-0.28
	c-0.005-0.612-0.009-1.059,0.232-1.299c0.107-0.105,0.248-0.161,0.42-0.161h1.653c0.077-0.106,0.162-0.2,0.235-0.28
	c0.049-0.049,0.096-0.069,0.14-0.069c0.083,0,0.148,0.078,0.144,0.146c-0.004,0.07,0.005,0.138,0.017,0.203h1.466
	c0.039,0,0.191,0.012,0.332,0.163c0.229,0.251,0.316,0.755,0.259,1.496c-0.038,0.48-0.103,0.783-0.198,1.004
	c-0.035,0.411-0.083,0.738-0.139,1.003c0.305-0.012,0.54-0.11,0.695-0.312c0.147-0.188,0.225-0.459,0.225-0.788v-1.878
	c0-1.302-0.8-1.315-0.806-1.315h-4C19.09,20.359,18.799,20.463,18.598,20.666z"/>
<path fill="none" d="M22.773,16.877c-0.152-0.085-0.311-0.088-0.311-0.088s-0.946,0.003-2.238,0.001l0,0
	c-0.203,0-0.361,0.055-0.473,0.168c-0.205,0.206-0.205,0.544-0.205,0.547l-0.009,2.404h3.542v-2.401
	C23.08,17.199,22.981,16.993,22.773,16.877z"/>
<path fill="none" d="M19.521,21.844c0,1.107,0,2.963,1.177,3.718c0.327,0.21,0.642,0.315,0.936,0.315
	c0.481,0,0.75-0.283,0.762-0.297l0.024-0.024c0.317-0.304,0.71-0.679,0.71-3.778c0-0.074-0.408-0.289-1.343-0.334
	c0.073,0.176,0.129,0.344,0.083,0.513c-0.066,0.238-0.32,0.413-0.57,0.413c-0.17,0-0.34-0.082-0.443-0.289
	c-0.103-0.206-0.089-0.419-0.021-0.625C19.979,21.523,19.521,21.728,19.521,21.844z"/>
<path fill="none" d="M15.129,4.916v3.119h0.753c-0.001-0.827-0.001-1.808,0.003-2.233c0.008-0.517,0.381-0.7,0.699-0.7
	c0.02,0,0.035,0.002,0.043,0.002h10.032c0.612,0,0.848,0.46,0.854,0.766v2.166h0.691V4.928c0-0.877-0.695-0.9-0.776-0.9
	c0,0-9.447,0-11.102,0c-0.473,0-0.814,0.107-1.01,0.325c-0.217,0.235-0.19,0.527-0.189,0.541L15.129,4.916z"/>
<path fill="none" d="M16.254,8.548c-0.037-0.044-0.082-0.062-0.15-0.062h-1.145c-0.113,0-0.261,0.015-0.327,0.084
	c-0.036,0.041-0.056,0.104-0.063,0.185h1.777C16.324,8.671,16.298,8.597,16.254,8.548z"/>
<path fill="none" d="M11.736,8.755c-0.021-0.108-0.055-0.202-0.098-0.25c-0.02-0.019-0.029-0.02-0.042-0.02h-0.918
	c0.002,0.107,0.003,0.192,0.003,0.27H11.736z"/>
<path fill="none" d="M10.231,8.755c-0.003-0.067-0.003-0.145-0.003-0.235L6.279,7.15L6.107,7.511l3.574,1.244H10.231z"/>
<path fill="none" d="M26.659,5.555L16.595,5.553l0,0c-0.256,0-0.258,0.178-0.259,0.255c-0.004,0.43-0.004,1.434-0.002,2.269
	c0.101,0.036,0.189,0.095,0.261,0.176c0.12,0.139,0.18,0.321,0.209,0.503h9.787c0.015-0.186,0.061-0.358,0.189-0.493
	c0.075-0.079,0.169-0.138,0.283-0.174V5.875C27.061,5.808,27.019,5.555,26.659,5.555z"/>
<path fill="none" d="M39.753,8.755c-0.014-0.023-0.029-0.046-0.047-0.067c-0.121-0.137-0.299-0.202-0.547-0.202h-1.298
	c0.003,0.075,0.003,0.166,0.003,0.27L39.753,8.755L39.753,8.755z"/>
<path fill="none" d="M37.085,7.511l-0.17-0.361l-3.951,1.37c-0.002,0.091-0.002,0.168-0.004,0.235h0.552L37.085,7.511z"/>
<path fill="none" d="M27.107,8.569c-0.038,0.041-0.056,0.104-0.064,0.185h1.778c-0.022-0.083-0.049-0.157-0.093-0.206
	c-0.037-0.044-0.083-0.062-0.15-0.062h-1.145C27.32,8.485,27.172,8.5,27.107,8.569z"/>
<path fill="none" d="M32.515,8.485h-0.917c-0.015,0-0.022,0.001-0.041,0.02c-0.048,0.05-0.077,0.142-0.101,0.249h1.056
	C32.513,8.678,32.513,8.593,32.515,8.485z"/>
<path fill="none" d="M19.521,21.844c0,1.107,0,2.963,1.177,3.718c0.327,0.21,0.642,0.315,0.936,0.315
	c0.481,0,0.75-0.283,0.762-0.297l0.024-0.024c0.317-0.304,0.71-0.679,0.71-3.778c0-0.074-0.408-0.289-1.343-0.334
	c0.073,0.176,0.129,0.344,0.083,0.513c-0.066,0.238-0.32,0.413-0.57,0.413c-0.17,0-0.34-0.082-0.443-0.289
	c-0.103-0.206-0.089-0.419-0.021-0.625C19.979,21.523,19.521,21.728,19.521,21.844z"/>
<path fill="none" d="M19.307,26.567c0,0.482,0.238,0.82,0.45,0.82h3.372c0.215,0,0.451-0.338,0.451-0.82v-1.486
	c-0.089,0.014-0.185,0.023-0.285,0.023c-0.024,0-0.053-0.004-0.08-0.004c-0.147,0.421-0.33,0.594-0.504,0.757l-0.009,0.013
	c-0.059,0.062-0.435,0.43-1.069,0.43c-0.375,0-0.767-0.129-1.163-0.383c-0.339-0.219-0.593-0.504-0.786-0.83
	c-0.131-0.004-0.256-0.016-0.377-0.033V26.567L19.307,26.567z"/>
<path fill="none" d="M5.331,8.485h-1.3c-0.249,0-0.425,0.066-0.545,0.202C3.469,8.709,3.454,8.731,3.438,8.754h1.891
	C5.329,8.651,5.331,8.561,5.331,8.485z"/>
<path fill="none" d="M42.292,14.503l-0.004-2.585c0-0.004-0.006-0.532-0.285-1.032c-0.348-0.626-0.953-0.93-1.853-0.93H3.13l0,0
	c-0.014,0-0.528,0.004-1.015,0.271c-0.608,0.334-0.906,0.918-0.906,1.791v3.641l-0.607,0.003h0.601v1.67
	c0.004,0.206,0.109,2.073,2.597,2.151c1.759,0.055,8.308,0.065,15.291,0.055l0.005-2.031c0-0.017-0.001-0.522,0.337-0.865
	c0.199-0.2,0.466-0.302,0.793-0.302h0.002c1.287,0.001,2.233-0.001,2.233-0.001h0.001c0.029,0,0.276,0.002,0.533,0.146
	c0.244,0.137,0.537,0.427,0.537,1.024v2.022c7.986-0.016,15.334-0.048,15.485-0.048h0.021l0.021,0.002
	c0.135,0.011,0.34,0.011,0.58-0.004l1.41-2.992L42.292,14.503z"/>
<path fill="none" d="M42.294,17.542V16.03v-0.554l0,0l-0.002-0.974l-1.24,1.985l-1.411,2.992c0.668-0.041,1.618-0.21,2.174-0.726
	C42.139,18.452,42.294,18.056,42.294,17.542z"/>
<path fill="none" d="M21.299,22.07c0.121,0,0.251-0.092,0.281-0.196c0.023-0.089-0.035-0.235-0.101-0.387
	c-0.045-0.104-0.095-0.222-0.13-0.351c-0.185,0.243-0.353,0.561-0.225,0.808C21.181,22.057,21.251,22.07,21.299,22.07z"/>
<path fill="none" d="M38.637,21.603l0.435-0.915c-0.029-0.001-0.054-0.003-0.068-0.003c-0.43,0.002-7.037,0.029-14.454,0.046
	c0.102,0.239,0.167,0.546,0.167,0.944v1.877c0,0.431-0.113,0.801-0.323,1.068c-0.106,0.135-0.239,0.242-0.391,0.322v1.625
	c0,0.697-0.384,1.24-0.873,1.24h-3.372c-0.487,0-0.87-0.543-0.87-1.24v-1.613c-0.682-0.226-1.066-0.729-1.066-1.438v-1.991
	c0-0.018-0.003-0.395,0.185-0.784c-1.094,0.003-2.172,0.004-3.215,0.004c-5.236,0-9.629-0.016-11.028-0.06
	c-1.187-0.036-1.996-0.391-2.554-0.855v13.364c-0.002,0.009-0.102,1.253,0.667,2.091c0.495,0.539,1.27,0.812,2.3,0.812
	c4.713,0,16.441,0,25.202-0.002l0.312-0.492L38.637,21.603z"/>
<path fill="none" d="M33.514,36.094c3.858,0,6.479-0.002,6.479-0.002c0.229-0.002,2.305-0.109,2.305-2.959v-9.77L33.514,36.094z"/>
<path fill="none" d="M42.298,19.904c-1.168,0.808-2.813,0.8-3.228,0.783l-0.435,0.915l-8.949,13.999l-0.311,0.491
	c1.479,0,2.873,0,4.137,0l8.783-12.729v-3.459H42.298z"/>
<path fill="none" d="M18.598,20.666c-0.329,0.337-0.326,0.847-0.326,0.854v1.995c0,0.798,0.641,1.044,1.189,1.106
	c-0.098-0.248-0.168-0.513-0.221-0.774c-0.209-0.21-0.453-0.475-0.453-1.121c0-0.098-0.002-0.19-0.004-0.28
	c-0.005-0.612-0.009-1.059,0.232-1.299c0.107-0.105,0.248-0.161,0.42-0.161h1.653c0.077-0.106,0.162-0.2,0.235-0.28
	c0.049-0.049,0.096-0.069,0.14-0.069c0.083,0,0.148,0.078,0.144,0.146c-0.004,0.07,0.005,0.138,0.017,0.203h1.466
	c0.039,0,0.191,0.012,0.332,0.163c0.229,0.251,0.316,0.755,0.259,1.496c-0.038,0.48-0.103,0.783-0.198,1.004
	c-0.035,0.411-0.083,0.738-0.139,1.003c0.305-0.012,0.54-0.11,0.695-0.312c0.147-0.188,0.225-0.459,0.225-0.788v-1.878
	c0-1.302-0.8-1.315-0.806-1.315h-4C19.09,20.359,18.799,20.463,18.598,20.666z"/>
<path fill="none" d="M22.773,16.877c-0.152-0.085-0.311-0.088-0.311-0.088s-0.946,0.003-2.238,0.001l0,0
	c-0.203,0-0.361,0.055-0.473,0.168c-0.205,0.206-0.205,0.544-0.205,0.547l-0.009,2.404h3.542v-2.401
	C23.08,17.199,22.981,16.993,22.773,16.877z"/>
<path fill="#5D5D5D" d="M42.294,23.363v9.77c0,2.85-2.071,2.957-2.305,2.959c0,0-2.617,0.002-6.477,0.002l-0.829,1.201
	c4.28,0,7.269,0,7.308,0c0.033,0,3.508-0.047,3.508-4.162V21.62L42.294,23.363z"/>
<path fill="#666666" d="M4.175,36.096c-1.03,0-1.805-0.273-2.3-0.812c-0.769-0.838-0.669-2.082-0.667-2.091V19.828
	c0.558,0.465,1.367,0.819,2.554,0.855c1.397,0.044,5.792,0.06,11.028,0.06c1.043,0,2.121-0.001,3.215-0.004
	c-0.19,0.39-0.185,0.767-0.185,0.784v1.991c0,0.71,0.385,1.214,1.066,1.439v1.612c0,0.696,0.383,1.24,0.87,1.24h3.372
	c0.489,0,0.873-0.544,0.873-1.24v-1.625c0.151-0.08,0.284-0.188,0.391-0.323c0.21-0.267,0.323-0.637,0.323-1.067v-1.877
	c0-0.398-0.065-0.705-0.167-0.943c7.417-0.018,14.023-0.045,14.454-0.047c0.016,0,0.039,0.002,0.068,0.003l0.569-1.207
	c-0.24,0.015-0.445,0.015-0.58,0.004l-0.021-0.003h-0.022c-0.149,0.001-7.499,0.033-15.485,0.049v-2.022
	c0-0.6-0.293-0.888-0.537-1.024c-0.257-0.144-0.502-0.148-0.533-0.148c0,0-0.945,0.005-2.234,0.004h-0.002
	c-0.327,0-0.594,0.102-0.793,0.302c-0.338,0.343-0.337,0.849-0.337,0.865l-0.005,2.031c-6.983,0.011-13.532,0-15.291-0.055
	c-2.487-0.079-2.593-1.945-2.597-2.151v-1.67h-0.6l0.607-0.003v-3.641c0-0.873,0.298-1.457,0.906-1.791
	C2.602,9.96,3.118,9.956,3.13,9.956h0.001h37.021c0.898,0,1.506,0.304,1.852,0.93c0.281,0.501,0.285,1.028,0.285,1.033l0.004,2.584
	l1.201-1.92l-0.002-0.664c0-0.054-0.005-1.344-0.924-2.27c-0.572-0.573-1.354-0.873-2.314-0.892
	c-0.045-0.126-0.107-0.254-0.205-0.365c-0.207-0.238-0.504-0.357-0.887-0.357h-1.754l0.002,0.229c0,0.003,0.004,0.192,0.004,0.49
	h-2.529l2.588-0.9c0.061-0.02,0.109-0.067,0.133-0.127c0.023-0.058,0.023-0.125-0.005-0.183l-0.36-0.77
	c-0.05-0.104-0.169-0.155-0.279-0.118l-3.985,1.386V8.035H31.6c-0.144,0-0.271,0.056-0.371,0.163
	C31.098,8.335,31.033,8.547,31,8.755h-1.719c-0.031-0.182-0.093-0.364-0.211-0.503c-0.106-0.124-0.249-0.193-0.415-0.21V4.928
	c0-1.069-0.804-1.354-1.229-1.354c0,0-9.446,0-11.101,0c-0.609,0-1.063,0.163-1.349,0.483c-0.319,0.355-0.306,0.78-0.301,0.869
	v3.141c-0.153,0.031-0.277,0.097-0.372,0.194c-0.125,0.135-0.173,0.308-0.188,0.493h-1.921c-0.035-0.208-0.103-0.42-0.229-0.557
	c-0.101-0.107-0.229-0.163-0.37-0.163H10.22v0.007L6.234,6.656C6.126,6.619,6.006,6.67,5.957,6.774l-0.363,0.77
	C5.566,7.602,5.566,7.669,5.589,7.727c0.026,0.06,0.072,0.107,0.134,0.127l2.588,0.9H5.778c0.003-0.298,0.007-0.487,0.007-0.49
	l0.004-0.229H4.031c-0.38,0-0.679,0.119-0.884,0.357C3.048,8.504,2.982,8.632,2.941,8.76C1.83,8.835,0.008,9.577,0.008,12.018v3.644
	H0v1.671c0,0.003,0.002,0.05,0.008,0.125V33.11c-0.02,0.258-0.081,1.818,0.971,2.975c0.732,0.807,1.809,1.215,3.196,1.215
	c4.576,0,15.775,0,24.443-0.002l0.758-1.203C20.616,36.096,8.888,36.096,4.175,36.096z M23.58,26.567c0,0.482-0.236,0.82-0.451,0.82
	h-3.372c-0.212,0-0.45-0.338-0.45-0.82v-1.514c0.119,0.018,0.246,0.031,0.377,0.033c0.191,0.324,0.445,0.611,0.786,0.83
	c0.396,0.254,0.788,0.381,1.163,0.381c0.635,0,1.011-0.366,1.067-0.43l0.011-0.009c0.174-0.166,0.354-0.339,0.504-0.76
	c0.027,0.001,0.056,0.004,0.08,0.004c0.101,0,0.196-0.011,0.285-0.024V26.567z M20.855,22.08c0.104,0.207,0.273,0.289,0.443,0.289
	c0.25,0,0.504-0.175,0.57-0.414c0.046-0.168-0.01-0.336-0.083-0.512c0.935,0.045,1.343,0.26,1.343,0.334
	c0,3.101-0.393,3.476-0.71,3.778l-0.024,0.023c-0.012,0.012-0.28,0.299-0.762,0.299c-0.294,0-0.608-0.106-0.936-0.316
	c-1.177-0.755-1.177-2.61-1.177-3.718c0-0.116,0.459-0.322,1.313-0.389C20.767,21.661,20.753,21.874,20.855,22.08z M21.35,21.138
	c0.035,0.128,0.086,0.245,0.13,0.351c0.065,0.151,0.126,0.298,0.101,0.387c-0.03,0.104-0.16,0.196-0.281,0.196
	c-0.048,0-0.118-0.014-0.174-0.125C21,21.697,21.165,21.381,21.35,21.138z M19.547,17.505c0-0.003,0.003-0.341,0.205-0.547
	c0.111-0.113,0.27-0.168,0.473-0.168h0.002c1.29,0.002,2.236-0.001,2.236-0.001s0.158,0.003,0.311,0.088
	c0.208,0.116,0.307,0.322,0.307,0.631v2.401h-3.542L19.547,17.505z M18.271,21.52c0-0.007-0.001-0.517,0.328-0.854
	c0.199-0.203,0.49-0.307,0.861-0.307h3.997c0.006,0,0.806,0.014,0.806,1.315v1.877c0,0.329-0.077,0.602-0.225,0.79
	c-0.155,0.195-0.391,0.299-0.695,0.311c0.056-0.266,0.104-0.592,0.139-1.003c0.096-0.222,0.16-0.523,0.2-1.007
	c0.056-0.738-0.031-1.242-0.261-1.493c-0.141-0.151-0.293-0.163-0.332-0.163h-1.466c-0.012-0.065-0.021-0.133-0.015-0.203
	c0.003-0.068-0.061-0.146-0.146-0.146c-0.044,0-0.091,0.021-0.14,0.069c-0.073,0.08-0.158,0.174-0.235,0.28h-1.653
	c-0.172,0-0.312,0.056-0.42,0.161c-0.239,0.241-0.237,0.687-0.232,1.299c0.002,0.09,0.004,0.183,0.004,0.28
	c0,0.646,0.244,0.911,0.453,1.121c0.053,0.263,0.123,0.524,0.221,0.774c-0.549-0.062-1.189-0.31-1.189-1.105V21.52z M39.16,8.485
	c0.248,0,0.426,0.065,0.547,0.202c0.018,0.021,0.033,0.044,0.047,0.066h-1.889c0-0.103,0-0.193-0.003-0.269L39.16,8.485L39.16,8.485
	z M32.964,8.52l3.951-1.37l0.17,0.361l-3.573,1.244H32.96C32.962,8.688,32.962,8.61,32.964,8.52z M31.557,8.505
	c0.019-0.019,0.026-0.02,0.041-0.02h0.917c-0.002,0.107-0.002,0.192-0.003,0.27h-1.056C31.479,8.646,31.509,8.555,31.557,8.505z
	 M26.591,8.755h-9.787c-0.029-0.182-0.089-0.364-0.209-0.503c-0.071-0.083-0.16-0.14-0.261-0.176
	c-0.002-0.835-0.002-1.839,0.002-2.269c0.001-0.077,0.003-0.255,0.259-0.255l10.064,0.002c0.359,0,0.401,0.253,0.404,0.32v2.213
	c-0.114,0.036-0.208,0.095-0.283,0.174C26.651,8.396,26.605,8.569,26.591,8.755z M28.729,8.548c0.044,0.051,0.07,0.123,0.093,0.207
	h-1.778c0.009-0.079,0.026-0.145,0.064-0.185c0.064-0.07,0.213-0.085,0.326-0.085h1.145C28.646,8.485,28.691,8.504,28.729,8.548z
	 M15.316,4.353c0.195-0.218,0.537-0.325,1.01-0.325c1.654,0,11.101,0,11.101,0c0.082,0,0.777,0.025,0.777,0.9v3.107h-0.691V5.869
	c-0.006-0.309-0.241-0.766-0.854-0.766H16.627c-0.008,0-0.023-0.002-0.043-0.002c-0.318,0-0.691,0.184-0.699,0.7
	c-0.004,0.426-0.004,1.406-0.003,2.233h-0.753V4.916l-0.002-0.022C15.126,4.88,15.1,4.588,15.316,4.353z M14.632,8.569
	c0.066-0.069,0.214-0.084,0.327-0.084h1.145c0.068,0,0.113,0.019,0.15,0.062c0.044,0.051,0.07,0.123,0.092,0.207H14.57
	C14.576,8.674,14.596,8.61,14.632,8.569z M11.597,8.485c0.013,0,0.022,0.001,0.042,0.02c0.043,0.048,0.076,0.142,0.098,0.25h-1.055
	c0-0.077-0.001-0.162-0.003-0.27H11.597z M6.107,7.511L6.279,7.15l3.949,1.37c0,0.091,0.003,0.168,0.003,0.235h-0.55L6.107,7.511z
	 M3.486,8.688c0.12-0.136,0.296-0.202,0.545-0.202h1.3c0,0.075-0.002,0.166-0.003,0.27h-1.89C3.454,8.731,3.469,8.709,3.486,8.688z"
	/>
<path fill="#FFFFFF" d="M37.029,7.065c0,0,0.29-0.185-0.805,0.138c-1.096,0.323-3.502,1.102-3.502,1.102L31.49,8.146l-0.354,0.842
	h2.802l3.604-1.354L37.029,7.065z"/>
<polygon fill="#FFFFFF" points="12.305,9.036 11.885,8.312 10.376,8.271 6.209,6.878 5.778,7.644 9.701,9.036 12.305,9.093 "/>
<path fill="#FFFFFF" d="M5.574,8.946L5.502,8.312c0,0-1.914-0.087-2.063,0.173c-0.15,0.261-0.271,0.608-0.271,0.608L5.574,8.946z"/>
<path fill="#666666" d="M29.559,8.77l-1.085-0.554l-0.083-0.312l-0.127-3.755l-0.877-0.231L16.203,3.709L14.988,4.17l-0.109,1.1
	v2.688l0,0l-0.514,0.307V8.77l1.295,0.323l0.697-0.104c0,0,0.51-0.155,0.275-0.368c-0.236-0.212-0.513-0.427-0.513-0.427
	s0.009-2.575,0.042-2.575c0.031,0,0.404-0.215,0.404-0.215L26.77,5.415l0.535,0.321l-0.033,2.49l-0.363,0.26l-0.032,0.386
	L29.559,8.77z"/>
<path fill="#FFFFFF" d="M23.05,24.972l0.313-1.714l-0.136-1.908h-1.651l-0.244-0.497l-0.337,0.399l-1.688,0.275l0.08,2.254
	l0.451,1.117l-1.128-0.103l-0.692-1.401l0.254-2.542c0,0,0.197-0.534,0.922-0.566c0.724-0.031,0.724,0.042,0.724,0.042l0.031-0.01
	h3.688c0,0,0.821,0.107,0.821,1.125s0.177,2.95-0.354,3.208C23.57,24.909,23.05,24.972,23.05,24.972z"/>
</svg>
