<?xml version="1.0" encoding="utf-8"?>
<!-- Generator: Adobe Illustrator 16.0.0, SVG Export Plug-In . SVG Version: 6.00 Build 0)  -->
<!DOCTYPE svg PUBLIC "-//W3C//DTD SVG 1.1//EN" "http://www.w3.org/Graphics/SVG/1.1/DTD/svg11.dtd">
<svg version="1.1" id="Calque_4" xmlns="http://www.w3.org/2000/svg" xmlns:xlink="http://www.w3.org/1999/xlink" x="0px" y="0px"
	 width="68px" height="43.813px" viewBox="0 0 68 43.813" enable-background="new 0 0 68 43.813" xml:space="preserve">
<g>
	<path fill="#FFFFFF" d="M61.755,19.545c0.05-0.313,0.073-0.626,0.05-0.938c-0.098-1.447-0.977-2.825-2.543-3.988
		c-0.954-0.705-2.223-1.083-3.666-1.083c-1.994,0-4.231,0.733-5.83,1.919c-0.804,0.591-1.544,1.246-2.327,1.937
		c-0.581,0.512-1.167,1.027-1.794,1.531c-4.264,0.004-10.377,0.168-13.318,2.035c-1.9,1.209-2.69,3.22-2.989,5.055
		c-1.019,0.504-2.006,1.057-2.923,1.674c-2.531,1.701-3.995,3.587-4.354,5.604c-0.179,0.993-0.077,2.016,0.296,3.015
		c-0.111,1.439,0.336,2.866,1.333,4.245c1.948,2.696,5.144,3.264,7.48,3.264c3.08,0,6.543-1.015,9.041-2.65
		c4.506-2.953,6.712-4.876,9.938-7.771c1.479-1.325,3.048-2.484,4.569-3.604c1.84-1.359,3.743-2.765,5.463-4.453
		C62.59,22.97,62.396,20.906,61.755,19.545z M33.377,22.61c1.887-1.2,5.766-1.567,9.224-1.682c-0.237,0.118-0.476,0.237-0.724,0.348
		c-1.108,0.487-2.552,0.966-4.223,1.521c-1.868,0.618-3.973,1.323-6.051,2.187C31.936,24.048,32.482,23.18,33.377,22.61z
		 M23.023,33.463c0.312-1.744,1.637-3.416,3.938-4.965c0.705-0.473,1.46-0.903,2.237-1.31c-0.083,1.262,0.022,2.296,0.083,2.727
		c-0.124,0.492-0.346,1.675-0.053,2.892c0.109,0.449,0.509,0.751,0.95,0.748c0.077,0,0.157-0.008,0.233-0.025
		c0.525-0.128,0.847-0.658,0.722-1.183c-0.079-0.314-0.092-0.638-0.087-0.933c1.434,0.591,3.99,1.41,7.164,1.41
		c1.269,0,2.633-0.131,4.062-0.46c3.761-0.864,5.261-2.479,6.582-3.899c1.08-1.165,1.935-2.087,3.998-2.463
		c0.531-0.1,0.888-0.61,0.789-1.14c-0.1-0.531-0.604-0.881-1.141-0.79c-2.702,0.495-3.915,1.798-5.084,3.055
		c-1.187,1.281-2.406,2.602-5.58,3.329c-5.079,1.167-9.334-0.509-10.654-1.124c-0.062-0.65-0.121-1.876,0.106-3.146
		c2.266-0.994,4.618-1.777,6.67-2.459c1.696-0.562,3.158-1.048,4.31-1.555c0.865-0.378,1.637-0.814,2.348-1.282
		c0.82-0.011,1.586-0.011,2.245-0.011c0.788,0.002,1.455,0.003,1.949-0.012c0.543-0.013,0.97-0.463,0.954-1.004
		c-0.014-0.541-0.462-0.969-1.006-0.952c-0.412,0.014-0.958,0.014-1.588,0.012c0.309-0.266,0.612-0.532,0.914-0.794
		c0.768-0.68,1.489-1.319,2.26-1.89c1.443-1.062,3.454-1.722,5.25-1.722c1.234,0,2.296,0.307,3.08,0.888
		c0.929,0.687,2.054,1.813,2.152,3.268c0.02,0.272,0,0.548-0.055,0.819c-0.003,0.008-0.01,0.013-0.011,0.016
		c-0.13,0.65-0.462,1.301-0.982,1.954c-0.026,0.032-0.06,0.071-0.087,0.105c-0.172,0.203-0.352,0.408-0.559,0.612
		c-1.674,1.639-3.459,2.959-5.354,4.356c-1.542,1.138-3.132,2.312-4.646,3.671c-3.199,2.864-5.384,4.77-9.823,7.68
		c-2.345,1.536-5.604,2.49-8.504,2.49c-2.109,0-4.981-0.497-6.687-2.859c-0.16-0.222-0.303-0.448-0.43-0.677
		c-0.021-0.035-0.039-0.069-0.059-0.102c-0.125-0.229-0.234-0.465-0.326-0.696c-0.004-0.009-0.008-0.015-0.016-0.026
		C22.961,35.168,22.87,34.312,23.023,33.463z M59.497,24.635c-1.673,1.641-3.464,2.964-5.358,4.364
		c-1.539,1.134-3.13,2.308-4.643,3.664c-3.192,2.863-5.373,4.765-9.822,7.679c-2.347,1.535-5.605,2.488-8.504,2.488
		c-2.108,0-4.979-0.491-6.686-2.854c-0.342-0.475-0.61-0.953-0.801-1.43c0.076,0.087,0.163,0.158,0.241,0.242
		c0.119,0.127,0.239,0.252,0.366,0.369c0.15,0.141,0.309,0.267,0.467,0.388c0.132,0.105,0.262,0.206,0.398,0.298
		c0.164,0.11,0.335,0.207,0.506,0.303c0.139,0.081,0.277,0.16,0.421,0.228c0.175,0.087,0.353,0.158,0.533,0.231
		c0.143,0.056,0.284,0.118,0.43,0.166c0.185,0.064,0.372,0.115,0.558,0.169c0.138,0.037,0.277,0.081,0.416,0.111
		c0.197,0.045,0.389,0.077,0.586,0.113c0.127,0.021,0.256,0.05,0.382,0.066c0.216,0.03,0.424,0.047,0.636,0.068
		c0.099,0.005,0.202,0.02,0.301,0.028c0.305,0.019,0.6,0.026,0.884,0.026l0,0c2.31,0,4.837-0.569,7.009-1.545
		c0.723-0.324,1.406-0.694,2.031-1.104c4.5-2.947,6.708-4.872,9.941-7.769c1.48-1.329,3.05-2.486,4.572-3.61
		c1.836-1.357,3.737-2.761,5.461-4.45c0.27-0.266,0.502-0.534,0.721-0.805c0.027-0.032,0.056-0.066,0.082-0.101
		c0.214-0.276,0.398-0.555,0.557-0.836c0.002-0.002,0.004-0.004,0.004-0.006C61.269,22.275,60.703,23.446,59.497,24.635z"/>
</g>
<path fill="#FFFFFF" d="M38.019,7.967l-0.042-0.147l-0.109-0.104c-0.298-0.279-7.267-6.698-17.036-5.005L20.248,0l-1.566,0.339
	l0.583,2.708c-0.116,0.029-0.231,0.06-0.349,0.094c-0.08,0.021-0.158,0.046-0.237,0.069C18.346,3.307,18.02,3.412,17.7,3.524
	c-0.033,0.011-0.069,0.021-0.103,0.035C9.673,6.386,6.31,13.453,5.852,14.497c-0.002,0.006-0.003,0.008-0.004,0.01
	c-0.025,0.054-0.041,0.096-0.049,0.115L5.74,14.763l0.025,0.15c0.008,0.057,0.975,5.514,6.109,5.321
	c0.906-0.034,1.73-0.24,2.456-0.609c1.704-0.876,2.519-2.471,2.905-3.658c0.868,1.354,2.589,3.188,5.439,2.93l2.292,10.078
	l1.513-0.599l-2.237-9.814c0.265-0.091,0.515-0.196,0.753-0.318c2.144-1.101,2.817-3.165,3.015-4.596
	c1.188,1.291,3.472,2.97,6.63,1.685c0.188-0.077,0.365-0.159,0.535-0.246C39.293,12.973,38.031,8.018,38.019,7.967z M13.844,18.67
	c-0.586,0.302-1.26,0.468-2.008,0.495c-3.569,0.135-4.674-3.036-4.942-4.097l9.56-0.361C16.302,15.537,15.738,17.701,13.844,18.67z
	 M16.779,14.165l-9.76,0.367c0.877-1.757,4.284-7.703,11.241-10.07c0.277,0.106,0.63,0.163,1.03,0.165
	C18.43,6.63,16.964,10.52,16.779,14.165z M24.512,17.293c-0.38,0.193-0.804,0.342-1.265,0.441c-3.498,0.752-5.134-2.187-5.576-3.177
	l9.35-2.017C27.012,13.479,26.78,16.128,24.512,17.293z M17.325,14.091c0.21-3.693,1.745-7.638,2.563-9.495
	c0.166-0.021,0.337-0.048,0.512-0.084c0.172-0.038,0.339-0.085,0.499-0.134c1.511,1.358,4.538,4.315,6.249,7.592L17.325,14.091z
	 M27.674,11.821c-1.668-3.246-4.606-6.192-6.218-7.66c0.363-0.167,0.662-0.364,0.87-0.571c7.304-0.705,12.869,3.309,14.39,4.549
	L27.674,11.821z M34.236,14.342c-3.313,1.349-5.432-1.262-6.042-2.159l8.861-3.607C37.244,9.653,37.533,12.999,34.236,14.342z"/>
</svg>
