<?xml version="1.0" encoding="utf-8"?>
<!-- Generator: Adobe Illustrator 16.0.0, SVG Export Plug-In . SVG Version: 6.00 Build 0)  -->
<!DOCTYPE svg PUBLIC "-//W3C//DTD SVG 1.1//EN" "http://www.w3.org/Graphics/SVG/1.1/DTD/svg11.dtd">
<svg version="1.1" id="Calque_10" xmlns="http://www.w3.org/2000/svg" xmlns:xlink="http://www.w3.org/1999/xlink" x="0px" y="0px"
	 width="337.667px" height="303.816px" viewBox="0 0 337.667 303.816" enable-background="new 0 0 337.667 303.816"
	 xml:space="preserve">
<g opacity="0.6">
	<path fill="#CBC56E" d="M209.562,235.653c-8.693,0-15.972,4.505-17.997,10.58c-2.835-3.554-7.56-5.886-12.916-5.886
		c-0.965,0-1.905,0.087-2.823,0.231c-1.526-13.196-13.185-23.46-27.345-23.46c-13.106,0-24.064,8.792-26.837,20.562
		c-3.235-2.332-7.346-3.735-11.827-3.735c-5.555,0-10.532,2.158-13.982,5.572C91.85,229.361,81.789,222.147,70,222.147
		c-10.189,0-19.086,5.391-23.887,13.411c-4.568-2.728-9.906-4.299-15.613-4.299c-16.845,0-30.5,13.655-30.5,30.5
		s13.655,30.5,30.5,30.5c12.561,0,23.344-7.595,28.019-18.441c3.499,1.563,7.384,2.441,11.481,2.441
		c10.941,0,20.396-6.212,24.886-15.225c3.446,3.998,8.844,6.586,14.931,6.586c7.044,0,13.176-3.457,16.41-8.569
		c5.005,6.589,13.105,10.875,22.254,10.875c7.117,0,13.603-2.593,18.488-6.847c2.875,2.781,7.036,4.541,11.68,4.541
		c7.413,0,13.611-4.464,15.262-10.46c3.3,3.89,9.069,6.476,15.651,6.476c10.26,0,18.577-6.265,18.577-13.992
		C228.139,241.918,219.821,235.653,209.562,235.653z"/>
	<path fill="#CBC56E" d="M314.516,230.153c-11.945,0-21.774,6.175-23.018,14.104c-2.345-1.326-5.151-2.104-8.172-2.104
		c-8.207,0-14.86,5.701-14.86,12.733c0,7.033,6.653,12.734,14.86,12.734c7.364,0,13.46-4.595,14.639-10.618
		c4.203,2.934,10.063,4.757,16.551,4.757c12.786,0,23.151-7.075,23.151-15.803C337.667,237.229,327.302,230.153,314.516,230.153z"/>
</g>
<g>
	
		<linearGradient id="SVGID_1_" gradientUnits="userSpaceOnUse" x1="443.2627" y1="-111.3301" x2="384.047" y2="-58.8178" gradientTransform="matrix(-0.9974 0.0722 0.0722 0.9974 496.4397 206.6353)">
		<stop  offset="0.0068" style="stop-color:#D99762"/>
		<stop  offset="1" style="stop-color:#CF8042"/>
	</linearGradient>
	<path fill="url(#SVGID_1_)" d="M68.003,174.547c-0.812-5.83,0.028-11.315,0.028-11.315s-2.673,2.749-4.125,10.62
		c-2.97-22.707,1.766-36.358,6.507-55.033c-11.595,21.293-14.794,34.109-14.974,48.251c-3.267-11.648-3.568-19.023-3.294-26.387
		c-0.821,1.759-4.154,6.661-4.154,6.661s-2.315-8.592-0.824-21.144c-1.659,5.026-2.913,8.363-3.662,16.477
		c-2.056-9.128-0.717-23.421,7.804-39.94c-7.877,7.753-12.195,18.414-14.408,25.835c-0.365-43.52,50.506-51.128,75.091-30.137
		c30.942,26.419,21.927,159.688,21.927,159.688l-1.361,0.307l-19.179,0.023c0,0-19.932-74.532-31.738-82.468
		c-4.203-2.824-8.168-3.307-10.77-2.181c0.502-2.487,1.352-4.358,1.352-4.358S68.706,171.311,68.003,174.547z"/>
	<path fill="#EED4B1" d="M36.9,128.571c2.213-7.421,6.531-18.082,14.408-25.835c-8.521,16.52-9.859,30.812-7.804,39.94
		c0.749-8.113,2.003-11.45,3.662-16.477c-1.491,12.552,0.824,21.144,0.824,21.144s3.333-4.902,4.154-6.661
		c-0.274,7.363,0.027,14.738,3.294,26.387c0.18-14.142,3.379-26.958,14.974-48.251c-4.741,18.675-9.477,32.326-6.507,55.033
		c1.452-7.871,4.125-10.62,4.125-10.62s-0.84,5.485-0.028,11.315c0.703-3.236,4.219-5.101,4.219-5.101s-0.85,1.871-1.352,4.358
		c-4.71,2.038-4.956,9.343,5.935,17.586c-16.166-6.954-33.928-9.54-39.575-57.513C37.015,132.055,36.915,130.29,36.9,128.571z"/>
	<g>
		
			<linearGradient id="SVGID_2_" gradientUnits="userSpaceOnUse" x1="360.8584" y1="124.4121" x2="352.2936" y2="129.4394" gradientTransform="matrix(-1 0 0 1 454.7188 0)">
			<stop  offset="0.1188" style="stop-color:#D2BB90"/>
			<stop  offset="0.9307" style="stop-color:#C3A874"/>
		</linearGradient>
		<path fill="url(#SVGID_2_)" d="M93.078,125.189c2.662-4.309-0.47-8.116,5.359-13.913c8.2-8.156,17.829-0.433,17.829-0.433
			l-1.726,13.279c0,0-4.699,8.617-17.989,28.585C76.627,142.959,90.414,129.498,93.078,125.189z"/>
		<circle fill="#A5833D" cx="102.792" cy="114.566" r="1.88"/>
		<circle fill="#A5833D" cx="91.511" cy="140.261" r="1.881"/>
		
			<linearGradient id="SVGID_3_" gradientUnits="userSpaceOnUse" x1="354.123" y1="134.8037" x2="337.1778" y2="139.8315" gradientTransform="matrix(-1 0 0 1 454.7188 0)">
			<stop  offset="0.1188" style="stop-color:#D2BB90"/>
			<stop  offset="0.9307" style="stop-color:#C3A874"/>
		</linearGradient>
		<path fill="url(#SVGID_3_)" d="M98.796,144.447c0.433-3.109,2.711-16.393,11.05-27.488c7.456-9.919,18.108-14.209,22.644-15.665
			l1.186,7.359l-6.542,31.283l-22.859,38.929C96.879,163.623,98.391,147.344,98.796,144.447z"/>
		<path fill="#A5833D" d="M99.181,134.351c9.241-30.538,33.145-34.077,33.145-34.077l0.164,1.021
			c-4.535,1.456-15.188,5.746-22.644,15.665c-8.339,11.096-10.617,24.379-11.05,27.488c-0.405,2.896-1.917,19.176,5.478,34.418
			l-1.084,1.846C103.189,180.711,91.156,160.856,99.181,134.351z"/>
		<g>
			<path fill="none" stroke="#B69758" stroke-linecap="round" stroke-miterlimit="10" d="M106.722,176.713
				c0,0-0.338-0.484-0.854-1.44"/>
			<path fill="none" stroke="#B69758" stroke-linecap="round" stroke-miterlimit="10" stroke-dasharray="6.1744,6.1744" d="
				M104.409,172.15c-1.265-3.097-2.696-7.745-3.299-13.873c-1.19-12.103,1.42-26.44,10.731-38.73
				c6.573-8.678,15.605-13.177,20.349-15.073"/>
			<path fill="none" stroke="#B69758" stroke-linecap="round" stroke-miterlimit="10" d="M133.806,103.864
				c1.008-0.358,1.591-0.518,1.591-0.518"/>
		</g>
	</g>
	
		<linearGradient id="SVGID_4_" gradientUnits="userSpaceOnUse" x1="303.4766" y1="171.4277" x2="280.8519" y2="140.7029" gradientTransform="matrix(-1 0 0 1 454.7188 0)">
		<stop  offset="0.0024" style="stop-color:#E2AA7D"/>
		<stop  offset="1" style="stop-color:#DC9A64"/>
	</linearGradient>
	<path fill="url(#SVGID_4_)" d="M111.929,66.184c0,0,12.478,8.419,17.877,34.488c5.401,26.068-9.775,37.217-18.713,42.43
		c-8.938,5.214-11.732,28.397-3.912,74.484c7.821,46.086,8.071,44.69,8.071,44.69l77.679,11.172c0,0,14.524-49.438,22.066-82.677
		c7.541-33.239-26.535-49.702-26.535-49.702l-48.74-61.31L111.929,66.184z"/>
	<path fill="#EED4B1" d="M166.489,256.876c-0.093-10.242,2.142-25.789,2.142-25.789s-1.677,3.444-2.794,14.338
		c0-7.075,0.931-20.204,1.49-42.55c0.476-19.027,7.834-27.587,10.01-29.709c0.379-0.352,0.603-0.549,0.603-0.549
		s-0.224,0.179-0.603,0.549c-1.498,1.386-5.529,5.271-8.799,9.878c3.352-14.432,17.27-17.969,17.27-17.969
		s-6.982,0.978-13.965,5.167c9.775-16.061,28.211-10.195,28.211-10.195s-0.699-2.374-8.24-4.423
		c5.795-0.562,11.275,0.243,15.707,1.374c6.199,8.129,10.743,19.376,7.477,33.773c-7.542,33.238-22.066,82.677-22.066,82.677
		l-26.712-3.843C166.386,266.271,166.534,261.789,166.489,256.876z"/>
	<path fill="#B69758" d="M121.118,134.699c0,0,20.17,3.368,41.787,30.935c15.221,19.411,33.937,21.088,33.937,21.088v-2.095
		c0,0-17.505-1.489-33.519-21.786s-29.234-25.231-32.492-27.28c-3.26-2.048-8.223-2.904-8.223-2.904
		S118.948,131.417,121.118,134.699z"/>
	<path fill="#B69758" d="M202.038,184.232c0,0,11.287-13.785,6.999-25.378c2.044-0.886,2.234,1.986,2.234,1.986
		s3.538,12.312-9.611,25.952C200.565,185.256,202.038,184.232,202.038,184.232z"/>
	<path fill="#B69758" d="M197.622,188.338l1.453,1.132c0,0-2.653,3.536-1.605,18.688
		C196.072,208.298,193.936,197.495,197.622,188.338z"/>
	<path fill="#B69758" d="M202.052,187.778l-1.453,1.132c0,0,2.654,3.538,1.606,18.689
		C203.603,207.74,205.74,196.937,202.052,187.778z"/>
	
		<radialGradient id="SVGID_5_" cx="-286.0264" cy="184.8213" r="2.5051" gradientTransform="matrix(-1.1945 0 0 1 -142.29 0)" gradientUnits="userSpaceOnUse">
		<stop  offset="0.0068" style="stop-color:#B69758"/>
		<stop  offset="1" style="stop-color:#A5833D"/>
	</radialGradient>
	<ellipse fill="url(#SVGID_5_)" cx="199.247" cy="186.171" rx="3.105" ry="3.958"/>
	<path fill="#DC9A64" d="M113.069,146.964c11.453-10.7,22.229,9.731,22.229,9.731s25.417,34.449,28.676,38.173
		c3.259,3.725,8.101,6.052,16.48,5.121c8.378-0.931,41.617-12.197,50.463-15.456c8.845-3.259,11.172-7.447,13.219-10.24
		c2.05-2.793,3.539-10.242,1.211-16.557c-2.326-6.315-12.104-15.099-1.954-18.731c10.148-3.631,13.127,7.992,12.941,12.57
		c-0.071,1.725-0.568,3.602-0.559,10.054c4.842-3.258,15.547-1.842,13.966,6.351c6.983,0.866,4.114,9.635,4.114,9.635
		s3.705,0.448,2.31,7.711c-0.896,4.66-8.756,9.327-16.342,10.026c-6.038,0.556-11.776,3.056-11.776,3.056
		s-37.8,14.059-64.894,23.927c-27.093,9.869-35.752-2.699-35.752-2.699s-3.165-2.793-21.786-28.863
		C106.995,164.702,103.806,155.621,113.069,146.964z"/>
	
		<linearGradient id="SVGID_6_" gradientUnits="userSpaceOnUse" x1="331.9531" y1="166.1123" x2="348.7122" y2="154.0083" gradientTransform="matrix(-1 0 0 1 454.7188 0)">
		<stop  offset="0.0068" style="stop-color:#D99762"/>
		<stop  offset="1" style="stop-color:#CF8042"/>
	</linearGradient>
	<path fill="url(#SVGID_6_)" d="M113.069,146.964c11.453-10.7,22.229,9.731,22.229,9.731s1.793,2.432,4.488,6.07
		c-0.78-1.029-6.613-8.145-14.171-1.601c-8.127,7.036,0,29.606,0,29.606C106.995,164.702,103.806,155.621,113.069,146.964z"/>
	
		<linearGradient id="SVGID_7_" gradientUnits="userSpaceOnUse" x1="185.0762" y1="175.4111" x2="188.2881" y2="170.6282" gradientTransform="matrix(-1 0 0 1 454.7188 0)">
		<stop  offset="0.0068" style="stop-color:#D99762"/>
		<stop  offset="1" style="stop-color:#CF8042"/>
	</linearGradient>
	<path fill="url(#SVGID_7_)" d="M269.742,167.979c3.263,0.404,4.374,2.535,4.633,4.69c-1.33,2.169-4.638,5.55-11.721,3.402
		C268.24,173.804,269.742,167.979,269.742,167.979z"/>
	
		<linearGradient id="SVGID_8_" gradientUnits="userSpaceOnUse" x1="194.583" y1="164.3486" x2="193.6102" y2="168.1587" gradientTransform="matrix(-1 0 0 1 454.7188 0)">
		<stop  offset="0.0068" style="stop-color:#D99762"/>
		<stop  offset="1" style="stop-color:#CF8042"/>
	</linearGradient>
	<path fill="url(#SVGID_8_)" d="M255.776,168.775v-7.146c2.276-1.53,5.847-1.746,8.827-1.278c-1.286,1.616-1.55,3.866-1.949,4.863
		C261.677,167.658,255.776,168.775,255.776,168.775z"/>
	
		<linearGradient id="SVGID_9_" gradientUnits="userSpaceOnUse" x1="182.0127" y1="186.2549" x2="183.9327" y2="180.3203" gradientTransform="matrix(-1 0 0 1 454.7188 0)">
		<stop  offset="0.0068" style="stop-color:#D99762"/>
		<stop  offset="1" style="stop-color:#CF8042"/>
	</linearGradient>
	<path fill="url(#SVGID_9_)" d="M267.089,185.813c4.887-2.024,6.756-8.216,6.756-8.216l0.277-1.008
		c-0.137,0.628-0.266,1.024-0.266,1.024s0.028,0.005,0.074,0.014c0.408,0.088,2.412,0.704,2.543,4.354
		c0.021,0.639-0.017,1.378-0.128,2.217C274.403,185.719,271.4,186.926,267.089,185.813z"/>
	<path fill="#EED4B1" d="M244.899,142.022c0,0-4.38-5.733-5.491-5.136c-1.111,0.599,1.649,7.391,1.649,7.391
		S244.772,145.843,244.899,142.022z"/>
	<path fill="#E2AA7D" d="M117.423,88.356c0,0,14.524-0.372,23.648,13.035s22.903,37.986,26.628,44.503
		c3.725,6.518,8.38,10.801,20.483,9.497c5.213,4.655,10.428,6.704,24.394,4.656c13.965-2.049,14.896-8.939,11.917-20.298
		c-2.979-11.357-10.986-30.539-12.478-48.413c-1.489-17.877,3.26-39.384,6.612-44.69c-2.654,2.793-4.19,6.703-4.19,6.703
		s0.42-6.285,2.235-9.916c-3.911,5.866-5.586,12.43-5.586,12.43s-0.376-5.866,0.092-8.193c-1.221,1.445-1.151,3.076-2.886,5.33
		c-4.511-3.862-10.428-8.123-16.34-15.711c-5.667-7.274-18.155-23.742-22.904-34.217c1.676,6.984,1.397,11.173,0.698,12.988
		c-0.698-8.24-5.865-14.245-5.865-14.245s3.771,15.503-1.116,23.882c-4.889,8.38-12.71,14.105-12.71,14.105
		s-10.474-11.452-16.619-18.574C127.292,14.105,116.817,3.352,108.159,0c8.798,8.799,11.032,14.105,12.429,18.156
		c-4.888-7.402-11.032-11.731-11.032-11.731s6.704,7.961,7.681,17.317c0.979,9.356-2.792,19.971-9.077,24.021
		c-6.285,4.049-14.943,3.631-19.133,3.491c6.703,2.514,14.245,6.145,14.245,6.145s-6.983-0.279-8.379-0.978
		c7.122,3.352,16.479,6.703,16.479,6.703s-16.898-4.887-29.188-1.676c14.245,2.933,26.675,6.146,34.496,10.335
		c-14.524-0.978-14.524-0.978-14.524-0.978s12.01,2.653,20.528,8.101c-13.127-1.258-15.641-0.978-22.064-0.141
		c0,0,10.753,0.419,26.255,9.357C119.052,87.426,117.423,88.356,117.423,88.356z"/>
	
		<linearGradient id="SVGID_10_" gradientUnits="userSpaceOnUse" x1="331.6094" y1="25.0654" x2="315.4093" y2="54.4862" gradientTransform="matrix(-1 0 0 1 454.7188 0)">
		<stop  offset="0" style="stop-color:#D99762"/>
		<stop  offset="0.9742" style="stop-color:#CF8042"/>
	</linearGradient>
	<path fill="url(#SVGID_10_)" d="M156.062,59.494c0,0-9.077-5.586-18.436-7.262c-9.357-1.676-14.243-1.258-14.243-1.258
		s6.004-12.358,1.535-26.255c1.885,3.491,3.562,6.424,4.608,8.52c-0.349-3.143-2.443-7.612-2.443-7.612s7.262,9.985,11.172,15.433
		c3.91,5.446,5.656,7.611,9.636,11.521C151.871,56.492,156.062,59.494,156.062,59.494z"/>
	<path d="M151.644,72.429c0,0-0.101-0.548-0.018-1.493c0.023-0.235,0.044-0.495,0.109-0.772c0.029-0.138,0.052-0.283,0.088-0.431
		c0.043-0.146,0.088-0.297,0.135-0.451c0.074-0.316,0.245-0.621,0.38-0.952c0.168-0.317,0.36-0.645,0.578-0.969
		c0.124-0.15,0.25-0.306,0.378-0.465l0.193-0.237l0.233-0.211c0.154-0.144,0.312-0.288,0.472-0.436
		c0.153-0.152,0.355-0.258,0.535-0.392c0.184-0.126,0.37-0.255,0.558-0.386c0.208-0.104,0.419-0.207,0.63-0.312
		c0.214-0.104,0.422-0.218,0.642-0.319c0.229-0.082,0.459-0.167,0.691-0.251c0.233-0.083,0.467-0.169,0.703-0.255
		c0.241-0.07,0.493-0.12,0.741-0.183c0.503-0.104,0.993-0.271,1.52-0.326c0.521-0.077,1.047-0.154,1.572-0.232l0.05-0.008
		c-0.007,0,0.05-0.005-0.009-0.001l0.024-0.001l0.103-0.003l0.205-0.01l0.409-0.017l0.82-0.032c0.53,0.004,1.032,0.063,1.548,0.089
		c0.515,0.059,1.034,0.173,1.547,0.255c0.508,0.112,1.004,0.271,1.501,0.392c0.49,0.147,0.964,0.338,1.437,0.501
		c0.468,0.18,0.909,0.403,1.357,0.586c0.441,0.2,0.855,0.432,1.271,0.638c0.809,0.447,1.564,0.894,2.244,1.342
		c0.675,0.451,1.286,0.879,1.815,1.28c0.528,0.4,0.985,0.759,1.35,1.067c0.735,0.61,1.134,0.989,1.134,0.989
		s-0.085-0.106-0.246-0.308c-0.165-0.197-0.404-0.494-0.734-0.843c-0.326-0.355-0.733-0.777-1.229-1.232
		c-0.487-0.464-1.062-0.964-1.717-1.475c-0.651-0.516-1.387-1.039-2.2-1.544c-0.414-0.238-0.83-0.503-1.275-0.737
		c-0.451-0.227-0.911-0.463-1.393-0.673c-0.489-0.19-0.98-0.406-1.492-0.582c-0.522-0.153-1.046-0.331-1.588-0.454
		c-0.549-0.096-1.093-0.224-1.659-0.294c-0.57-0.039-1.161-0.105-1.722-0.113l-0.821,0.043l-0.408,0.022l-0.205,0.01l-0.103,0.006
		l-0.024,0.001c-0.076,0.007-0.036,0.005-0.061,0.007l-0.052,0.008c-0.55,0.089-1.1,0.177-1.644,0.264
		c-0.548,0.06-1.074,0.252-1.599,0.386c-0.262,0.075-0.523,0.138-0.778,0.223c-0.252,0.101-0.5,0.201-0.747,0.3
		c-0.246,0.101-0.49,0.199-0.732,0.297c-0.234,0.116-0.457,0.255-0.682,0.382c-0.223,0.128-0.442,0.255-0.66,0.381
		c-0.2,0.155-0.397,0.31-0.592,0.462c-0.188,0.157-0.397,0.285-0.561,0.463c-0.166,0.175-0.328,0.346-0.487,0.516l-0.234,0.253
		l-0.193,0.279c-0.126,0.184-0.249,0.365-0.371,0.543c-0.209,0.373-0.394,0.744-0.535,1.104c-0.11,0.373-0.255,0.713-0.3,1.058
		c-0.031,0.168-0.062,0.332-0.092,0.489c-0.021,0.158-0.027,0.312-0.038,0.46c-0.03,0.294-0.019,0.564-0.012,0.809
		c0.017,0.486,0.091,0.861,0.14,1.115C151.601,72.299,151.644,72.429,151.644,72.429z"/>
	<path d="M198.299,70.514c0,0,0.14-0.286,0.409-0.767c0.267-0.481,0.663-1.158,1.191-1.919c0.534-0.754,1.204-1.603,2.064-2.287
		c0.428-0.345,0.913-0.622,1.42-0.817c0.51-0.197,1.059-0.268,1.604-0.214c0.262,0.02,0.572,0.074,0.793,0.142
		c0.285,0.104,0.619,0.184,0.861,0.305c0.47,0.229,0.974,0.491,1.374,0.856l0.304,0.265c0.09,0.098,0.18,0.195,0.267,0.293
		c0.19,0.185,0.336,0.399,0.485,0.604c0.292,0.416,0.52,0.851,0.715,1.26c0.178,0.42,0.328,0.814,0.44,1.176
		c0.104,0.36,0.192,0.682,0.251,0.949c0.119,0.535,0.154,0.853,0.154,0.853s0.059-0.313,0.065-0.875
		c0.001-0.281-0.008-0.622-0.053-1.015c-0.022-0.195-0.06-0.401-0.091-0.622c-0.045-0.218-0.104-0.444-0.164-0.685
		c-0.142-0.469-0.322-0.979-0.608-1.479c-0.145-0.25-0.287-0.511-0.48-0.748c-0.093-0.124-0.185-0.248-0.285-0.368
		c-0.111-0.111-0.224-0.223-0.338-0.336c-0.454-0.45-1.003-0.834-1.649-1.137c-0.313-0.153-0.594-0.22-0.893-0.336
		c-0.379-0.121-0.693-0.179-1.058-0.215c-0.709-0.057-1.44,0.058-2.081,0.321c-0.649,0.255-1.199,0.655-1.67,1.076
		c-0.472,0.42-0.85,0.893-1.175,1.353c-0.327,0.459-0.584,0.92-0.802,1.354c-0.437,0.865-0.691,1.625-0.847,2.161
		C198.351,70.198,198.299,70.514,198.299,70.514z"/>
	
		<ellipse transform="matrix(0.7926 -0.6097 0.6097 0.7926 -16.5657 120.4757)" fill="#FFFFFF" cx="168.834" cy="84.592" rx="11.871" ry="16.871"/>
	<path fill="#FFFFFF" d="M210.362,81.931c0.131,6.624-2.227,12.078-5.267,12.183c-3.038,0.104-5.606-5.18-5.736-11.804
		c-0.13-6.623,2.229-12.077,5.268-12.183C207.665,70.024,210.233,75.308,210.362,81.931z"/>
	<path fill="#D99762" d="M177.755,59.494c0,0-12.686-4.888-19.529-11.032c-5.988-5.378-8.17-8.659-8.17-8.659
		s0.562-0.413,1.475-1.172c1.197,1.618,3.029,3.85,5.648,6.432C163.812,51.604,177.755,59.494,177.755,59.494z"/>
	<path fill="#EED4B1" d="M147.415,102.17c0.111-0.209,0.23-0.427,0.359-0.662C147.637,101.71,147.519,101.934,147.415,102.17
		c-1.341,2.487-1.502,3.091-1.502,3.091s0.187-6.29,5.865-8.525c5.68-2.233,8.938,4.005,9.218,4.376
		c-0.559-2.42-1.183-3.942-2.64-5.136c3.849,2.529,7.574,7.756,8.319,10.123c0.744,2.368,1.582,5.627,2.979,8.234
		c-0.466-3.165-0.652-5.68-0.652-5.68s3.446,6.89,7.077,11.918c3.631,5.027,7.262,11.451,10.054,15.362
		c-2.233-5.214-2.513-6.332-2.513-6.332s4.376,7.542,6.518,11.173s9.217,13.127,9.217,13.127l4.935,6.924
		c-8.053,0.199-12.082-1.839-16.106-5.434c-12.104,1.304-16.759-2.979-20.483-9.497c-2.952-5.164-12.215-21.665-20.475-34.967
		l0.178-0.599C147.402,110.329,146.129,105.106,147.415,102.17z"/>
	<g>
		<path fill="#E2AA7D" d="M159.346,108.188c0,0-0.11-0.592-0.596-1.34c-0.131-0.179-0.257-0.391-0.438-0.573
			c-0.167-0.197-0.36-0.395-0.588-0.57c-0.217-0.187-0.475-0.349-0.74-0.503c-0.283-0.127-0.563-0.275-0.88-0.339
			c-0.157-0.034-0.311-0.08-0.468-0.101c-0.159-0.014-0.319-0.019-0.477-0.025l-0.234-0.009l-0.229,0.035
			c-0.151,0.024-0.3,0.051-0.445,0.074c-0.292,0.05-0.545,0.188-0.79,0.279c-0.251,0.084-0.438,0.256-0.63,0.373
			c-0.187,0.124-0.354,0.239-0.475,0.378c-0.131,0.126-0.234,0.244-0.32,0.338c-0.17,0.192-0.258,0.307-0.258,0.307
			s0.146-0.042,0.385-0.124c0.117-0.042,0.261-0.09,0.414-0.155c0.152-0.071,0.342-0.107,0.535-0.166
			c0.097-0.027,0.195-0.055,0.299-0.086c0.103-0.032,0.205-0.067,0.317-0.075c0.223-0.023,0.445-0.085,0.679-0.097
			c0.232,0.008,0.471-0.038,0.706,0.011c0.118,0.013,0.235,0.03,0.355,0.037c0.118,0.018,0.232,0.061,0.351,0.086
			c0.24,0.036,0.46,0.157,0.689,0.23c0.217,0.116,0.45,0.198,0.65,0.333c0.204,0.127,0.409,0.244,0.592,0.382
			c0.19,0.126,0.355,0.269,0.524,0.387c0.159,0.132,0.306,0.252,0.435,0.358c0.13,0.113,0.243,0.211,0.337,0.291
			C159.235,108.087,159.346,108.188,159.346,108.188z"/>
		<path d="M212.578,160.048c-11.348,1.664-18.112,0.793-23.396-3.834c-3.118-3.117-0.999-0.822-8.567-9.464l44.732-3.291
			C227.09,152.615,224.952,158.232,212.578,160.048z"/>
		<path fill="#FFFFFF" d="M223.782,146.5c0,0,0.004,0.075,0,0.216c0.001,0.141-0.016,0.347-0.034,0.607
			c-0.018,0.26-0.059,0.575-0.118,0.932c-0.068,0.356-0.15,0.756-0.277,1.18c-0.053,0.215-0.121,0.436-0.214,0.656
			c-0.089,0.221-0.166,0.454-0.271,0.684c-0.236,0.446-0.46,0.927-0.788,1.369c-0.274,0.476-0.688,0.868-1.057,1.305
			c-0.194,0.212-0.433,0.38-0.646,0.575c-0.227,0.182-0.428,0.396-0.688,0.534c-0.499,0.3-0.96,0.671-1.505,0.877
			c-0.531,0.229-1.026,0.518-1.567,0.651c-0.532,0.15-1.026,0.365-1.527,0.471c-0.499,0.104-0.973,0.201-1.409,0.291
			c-0.436,0.105-0.845,0.141-1.206,0.185c-0.362,0.044-0.679,0.082-0.938,0.112c-0.521,0.069-0.82,0.109-0.82,0.109s0.301,0,0.826,0
			c0.265-0.005,0.584-0.009,0.95-0.014c0.369-0.006,0.786,0.003,1.233-0.081c0.449-0.063,0.937-0.133,1.453-0.206
			c0.516-0.073,1.042-0.255,1.593-0.4c0.561-0.125,1.095-0.394,1.647-0.633c0.569-0.211,1.063-0.592,1.592-0.906
			c0.271-0.15,0.486-0.378,0.723-0.573c0.225-0.208,0.474-0.392,0.677-0.616c0.394-0.465,0.804-0.904,1.083-1.414
			c0.336-0.474,0.535-0.999,0.751-1.479c0.095-0.245,0.159-0.495,0.236-0.729c0.082-0.234,0.137-0.466,0.178-0.69
			c0.11-0.444,0.148-0.863,0.18-1.23c0.022-0.369,0.029-0.691,0.021-0.955c-0.007-0.265-0.028-0.472-0.046-0.612
			C223.798,146.574,223.782,146.5,223.782,146.5z"/>
	</g>
	
		<linearGradient id="SVGID_11_" gradientUnits="userSpaceOnUse" x1="285.0361" y1="35.2969" x2="299.9796" y2="42.9781" gradientTransform="matrix(-1 0 0 1 454.7188 0)">
		<stop  offset="0" style="stop-color:#E2AA7D"/>
		<stop  offset="1" style="stop-color:#D99762"/>
	</linearGradient>
	<path fill="url(#SVGID_11_)" d="M179.523,60.192c-19.134-6.284-29.468-20.39-29.468-20.39s7.821-5.726,12.71-14.105
		c4.887-8.379,1.116-23.882,1.116-23.882s5.167,6.005,5.865,14.245c0.699-1.815,0.978-6.004-0.698-12.988
		c4.749,10.475,17.237,26.942,22.904,34.217c4.047,5.194,8.096,8.828,11.695,11.844l-3.315,5.194
		C200.333,54.327,198.797,61.17,179.523,60.192z"/>
	
		<linearGradient id="SVGID_12_" gradientUnits="userSpaceOnUse" x1="272.3271" y1="153.3379" x2="290.2025" y2="129.0385" gradientTransform="matrix(-1 0 0 1 454.7188 0)">
		<stop  offset="0" style="stop-color:#CF8042"/>
		<stop  offset="0.9742" style="stop-color:#B86D2A"/>
	</linearGradient>
	<path fill="url(#SVGID_12_)" d="M167.145,128.148c0,0,6.301,9.345,9.459,13.541c3.158,4.195,8.488,10.188,8.488,10.188
		s-6.126,0.629-9.479-2.724C172.262,145.802,167.425,129.824,167.145,128.148z"/>
	<defs>
		<filter id="Adobe_OpacityMaskFilter" filterUnits="userSpaceOnUse" x="145.913" y="100.672" width="42.27" height="54.953">
			<feColorMatrix  type="matrix" values="1 0 0 0 0  0 1 0 0 0  0 0 1 0 0  0 0 0 1 0"/>
		</filter>
	</defs>
	<mask maskUnits="userSpaceOnUse" x="145.913" y="100.672" width="42.27" height="54.953" id="SVGID_13_">
		<g filter="url(#Adobe_OpacityMaskFilter)">
			
				<linearGradient id="SVGID_14_" gradientUnits="userSpaceOnUse" x1="298.335" y1="123.7656" x2="308.3902" y2="118.4587" gradientTransform="matrix(-1 0 0 1 454.7188 0)">
				<stop  offset="0.0024" style="stop-color:#FFFFFF"/>
				<stop  offset="1" style="stop-color:#000000"/>
			</linearGradient>
			<polygon opacity="0.8" fill="url(#SVGID_14_)" points="176.446,163.344 191.681,154.172 155.708,94.419 140.474,103.591 			"/>
		</g>
	</mask>
	<path opacity="0.4" mask="url(#SVGID_13_)" fill="#D99762" d="M147.28,100.672l8.223,6.306c0,0,6.543,14.136,15.734,27.373
		c8.616,12.407,16.945,21.041,16.945,21.041c-12.104,1.304-16.759-2.979-20.483-9.497c-2.952-5.164-12.215-21.665-20.475-34.967
		l0.178-0.599c0,0-1.273-5.223,0.013-8.159c0.111-0.209,0.23-0.427,0.359-0.662c-0.129,0.235-0.248,0.453-0.359,0.662
		c-1.341,2.487-1.502,3.091-1.502,3.091S145.982,102.977,147.28,100.672z"/>
	<g>
		<ellipse transform="matrix(0.8149 -0.5796 0.5796 0.8149 -16.1885 116.7666)" cx="174.727" cy="83.729" rx="6.436" ry="9.929"/>
		<ellipse transform="matrix(0.9974 0.0725 -0.0725 0.9974 6.5344 -14.7702)" cx="206.605" cy="82.573" rx="3.749" ry="5.784"/>
		
			<ellipse transform="matrix(0.7721 -0.6355 0.6355 0.7721 -11.6506 130.7962)" fill="#FFFFFF" cx="176.544" cy="81.643" rx="1.537" ry="2.086"/>
		
			<ellipse transform="matrix(0.9982 -0.0596 0.0596 0.9982 -4.5212 12.5669)" fill="#FFFFFF" cx="208.535" cy="82.121" rx="0.918" ry="1.245"/>
	</g>
</g>
</svg>
